<?xml version="1.0" standalone="yes"?>
<svg xmlns="http://www.w3.org/2000/svg" width="424" height="399">
<path style="fill:transparent;" d="M0 0L0 399L110 399L424 399L424 0L0 0z"/>
<path style="fill:#150e08; stroke:none;" d="M272 390L273.5 390L275.056 389.889L276 389.694L278 388.889L280 387.611L281 386.861L283 385.361L284 384.611L285 383.806L286 383L288 381.389L289 380.611L291 378.917L293 377L294.917 375L296.611 373L298.194 371L299.806 369L300.583 368L301.306 367L302.611 365L303.194 364L304.389 362L305.611 360L306.167 359L306.722 358L307.611 356L308.389 354L309.194 352L309.611 351L309.972 350L310.333 349L311 347L311.667 345L312 344L312.306 343L312.611 342L313.139 340L313.361 339L313.611 338L313.806 337L314.194 335L314.611 333L314.778 332L315 330L315.083 329L315.389 327L315.611 326L315.917 324L315.972 323L316 321L316 319L316 311L316 306L316 304L315.972 303L315.917 302L315.611 300L315.389 299L315.083 297L314.917 295L314.778 294L314.389 292L314.056 290L313.944 289L313.611 287L313.361 286L312.861 284L312.639 283L312.361 282L312.139 281L311.611 279L311.306 278L310.694 276L310.389 275L309.861 273L309.611 272L309.306 271L309 270L308.333 268L307.611 266L306.806 264L306.389 263L305.667 261L305.333 260L304.972 259L304.611 258L304.194 257L303.389 255L302.611 253L301.75 251L301.222 250L300.778 249L300.25 248L299.833 247L299.389 246L298.611 244L298.167 243L297.778 242.056L297 240.5L296 239L297.5 238.472L298.056 238.111L299.056 237.583L300 236.972L301 236.333L302 235.667L305 233.667L306 233L308 231.667L309 231.028L310 230.389L312 229.194L313 228.611L315 227.333L316 226.667L318 225.389L319 224.833L320 224.25L322 223.222L323 222.778L324 222.222L326 221.222L327 220.778L328 220.222L329 219.778L330 219.222L331 218.778L332 218.25L334 217.389L336 216.611L338 215.806L339 215.389L341 214.667L342 214.333L343 213.972L344 213.611L345 213.194L347 212.389L349 211.611L351 210.75L352 210.25L354 209.389L356 208.611L357 208.167L358 207.75L359 207.222L361 206.222L362 205.75L363 205.167L364 204.611L366 203.389L368 202.167L369 201.556L370 200.833L372 199.361L373 198.611L374 197.806L376 196.194L377 195.389L378 194.611L380 192.917L381 191.972L382.917 190L384.528 188L385.722 186L386.139 185.056L386.722 183.5L387 182L383 178L381.028 176L379.222 174.028L378.444 173.111L377.667 172.306L377.25 171.778L376 171L377.5 169.583L378.056 169.167L380 167.611L382 165.917L383 164.972L384.972 163L385.917 162L387.611 160L388.389 159L389.222 158L390.056 157L390.944 156L392.583 154L393.306 153L394.667 151L396 149L397.333 147L397.972 146L398.611 145L399.75 143L400.222 142L400.75 141L401.167 140L401.611 139L402.389 137L403.194 135L403.611 134L404.333 132L404.667 131L405.333 129L406 127L406.306 126L406.611 125L407.139 123L407.361 122L407.639 121L407.861 120L408.361 118L408.611 117L408.917 115L409.083 113L409.222 112L409.611 110L409.917 108L409.972 107L410 105L410 104L410 102L410 95L410 92L410 91L410 89L409.972 88L409.917 87L409.611 85L409.389 84L409.056 82L408.944 81L408.611 79L408.194 77L407.806 75L407.583 74L407.306 73L406.667 71L405.972 69L405.611 68L405.167 67L404.722 66L403.528 64L401.917 62.0833L400 60.5L398 59.5L396 59.0833L395 59.0555L394 59.0833L392 59.4722L390 60.25L389 60.7778L388 61.25L386 62.3889L385 63.0278L384 63.6667L383 64.3333L381 65.6111L379 66.8055L378 67.3889L376 68.6667L375 69.3333L373 70.6111L372 71.1945L370 72.3889L368 73.6111L366 74.8055L365 75.3889L363 76.6667L362 77.3333L360 78.6111L359 79.1945L357 80.3889L355 81.6667L354 82.3333L353 82.9722L352 83.6111L351 84.1945L349 85.3889L347 86.6111L345 87.8055L344 88.3889L343 89.0278L341 90.2778L340 90.7778L338 91.0556L336.028 90.25L334.222 88.7778L332.639 86.9722L331.139 85L330.389 84L329 82L328.306 81L327.583 80L326.806 79L325.194 77L323.611 75L321.944 73L321.056 72L319.389 70L318.611 69L316.917 67L315 65L313 63L310 60L308 58L307 57.0278L306 56.0833L304 54.3889L303 53.6111L302 52.8055L300 51.1945L299 50.3889L297 48.8611L296 48.1389L295 47.3889L294 46.6945L293 46L292 45.3333L290 44L287 42L285 40.6667L283 39.3889L282 38.8055L280.083 37.5278L279.25 36.75L278.5 35.9167L277.417 34L276.611 32L275.806 30L275.389 29L274.611 27L273.75 25L273.222 24L272.222 22L271.75 21.0278L270.528 19.25L269.75 18.4722L267.972 17.2778L267 16.8611L266 16.4722L264 16.1667L262 16.4167L260 17L259 17.3333L257 18.0833L255 19.0833L254 19.7222L252 21.1389L250 22.5L248 23.2778L246 23.2222L244 22.6945L243 22.3889L241 21.8611L240 21.6389L239 21.3611L238 21.1389L237 20.8611L235 20.3611L234 20.1389L233 19.8611L231 19.3611L230 19.1389L229 18.8611L227 18.3889L226 18.1945L224 17.8055L223 17.6111L222 17.3889L221 17.1945L219 16.8055L218 16.6111L217 16.3889L215 16.0555L214 15.9445L212 15.6111L210 15.2222L208 15L207 14.9167L205 14.6111L204 14.3889L202 14.0833L201 14.0278L199 14L198 13.9722L197 13.9167L195 13.6111L194 13.3889L192 13.0833L191 13.0278L189 13L187 13L179 13L170 13L168 13L167 13L165 13.0278L164 13.0833L162 13.3889L161 13.6111L159 13.9167L158 13.9722L156 14L155 14.0278L154 14.0833L152 14.3889L151 14.6111L149 14.9445L148 15.0555L146 15.3889L144 15.7778L142 16.0555L140 16.3889L138 16.8055L136 17.1945L135 17.3889L133 17.8611L132 18.1389L131 18.3611L130 18.6389L129 18.8611L127 19.3889L126 19.6945L124 20.3055L123 20.6111L121 21.1389L120 21.3889L119 21.6945L118 22L116 22.6667L114 23.3889L113 23.8055L111 24.6111L109 25.3889L108 25.8055L106 26.6111L104 27.3889L103 27.8333L102 28.25L100 29.2222L99 29.7778L98 30.2222L97 30.7778L95 31.7778L94 32.25L93 32.8333L92 33.3889L90 34.6111L89 35.1945L88 35.8055L86 37L84 38.1945L83 38.8055L81 40.0278L79 41.3889L78 42.1389L77 42.8611L76 43.6389L75 44.3611L74 45.1389L72 46.6389L71 47.3889L69 49.0833L67 50.9167L66 51.7778L64 53.3889L63 54.2222L62 55.0833L60 57L59 58L57.0833 60L55.3889 62L53.7778 64L52.9167 65L51.0833 67L49.3889 69L48.6389 70L47.1389 72L46.3889 73L45 75L44.3333 76L43 78L41 81L40.3333 82L39.0278 84L38.3889 85L37.25 87L36.7778 88L36.2222 89L35.7778 90L35.2222 91L34.7778 92L34.2222 93L33.7778 94L32.7778 96L32.25 97L31.8333 98L31.3889 99L30.6111 101L29.8056 103L29.3889 104L28.6667 106L28.3333 107L27.6667 109L26.6667 112L26.3333 113L25.6944 115L25.3889 116L24.8611 118L24.6389 119L24.3889 120L24.1944 121L23.8056 123L23.3889 125L23.0556 127L22.9444 128L22.6111 130L22.3889 131L22.0833 133L22.0278 134L22 136L22 138L22 139L21.9722 141L21.9167 142L21.6111 144L21.3889 145L21.0833 147L21.0278 148L21 149L21 151L21.0278 153L21.0833 154L21.3889 156L21.6111 157L21.8333 159L21.5833 161L21.3056 162L21 163L20.3333 165L18.6667 170L18 172L17.3889 174L17.1389 175L16.8611 176L16.6389 177L16.3611 178L16.1389 179L15.8611 180L15.6389 181L15.3611 182L14.8611 184L14.6389 185L14.3611 186L14.1389 187L13.6389 189L13.3889 190L13.0556 192L12.9444 193L12.7778 194L12.3889 196L12.0833 198L12.0278 199L11.9722 201L11.9167 202L11.6111 204L11.3889 205L11.0833 207L11.0278 208L11 210L11 212L11 215L11.0278 217L11.0833 218L11.3889 220L11.6111 221L11.9167 223L11.9722 224L12 226L12.0278 227L12.0833 228L12.3889 230L12.6111 231L12.8056 232L13.1944 234L13.3889 235L13.8611 237L14.1389 238L14.3611 239L14.6389 240L14.8611 241L15.3889 243L15.6944 244L16 245L16.6667 247L17.3333 249L17.6667 250L18.0278 251L18.3889 252L19.25 254L19.7778 255L20.2222 256L20.7778 257L21.2222 258L21.7778 259L22.7778 261L23.2222 262L23.7778 263L24.25 264L25.3889 266L26.0278 267L27.3333 269L28 270L29.4167 272L30.1944 273L31.8056 275L32.6111 276L33.3889 277L35.0833 279L36.0278 280L38 282L39 283L40 284L42 285.917L43 286.778L44 287.611L46 289.194L48 290.806L49 291.611L50 292.361L51 293.139L53 294.611L54 295.306L55 296L57 297.333L59 298.667L60 299.333L62 300.611L63 301.194L65 302.389L67 303.611L68 304.167L69 304.75L70 305.222L72 306.222L73 306.75L74 307.167L75 307.611L77 308.389L79 309.194L80 309.611L82 310.389L84 311.194L85 311.611L86 311.972L87 312.333L88 312.667L90 313.333L92 314L93 314.306L94 314.611L96 315.139L97 315.361L98 315.639L99 315.861L100 316.139L102 316.611L103 316.806L105 317.194L106 317.389L107 317.611L108 317.806L110 318.194L111 318.389L113 318.778L114 318.917L116 319.083L117 319.222L119 319.611L121 319.917L122 319.972L124 320.028L125 320.083L127 320.389L128 320.611L130 320.917L131 320.972L133 321L136 321L144 321L150 321L152 321L153 320.972L154 320.917L156 320.611L157 320.389L159 320.083L160 320.028L162 320L163 320L166 320L168 319.972L169 319.917L171 319.611L172 319.389L174 319.083L175 319.028L177 319L178 319L180 319L189 319L196 319L198 319L200 319.028L201 319.083L203 319.389L204 319.611L205 319.778L206 319.944L207 320.056L209 320.389L211 320.861L212 321.139L213 321.361L214 321.639L215 321.861L217 322.389L219 323L220 323.333L222 324L224 324.667L225 325.028L226 325.389L228 326.25L229 326.778L230 327.222L231 327.778L232 328.222L233 328.778L234 329.222L235 329.778L236 330.25L237 330.833L239 332.028L241 333.389L242 334.139L243 334.861L245 336.389L247 338.083L248 339.028L249 340L251 342L253 344L254.917 346L256.583 348L257.306 349L258 350L259.333 352L260.667 354L261.333 355L262.611 357L263.167 358L263.75 359L264.222 360L265.222 362L265.75 363L266.167 364L266.611 365L267.389 367L268.194 369L268.611 370L268.972 371L269.611 373L269.861 374L270.139 375L270.611 377L270.806 378L271.194 380L271.389 381L271.611 382L271.917 384L271.972 385L272 386.944L272 387.944L272 390z"/>
<path style="fill:#fda13f; stroke:none;" d="M186 314L185.25 312.5L184.778 311.944L184.111 310.944L183.389 310L182.028 308L180.806 306L179.611 304L178.389 302L177.833 301L177.25 300L176.778 299L176.25 298L175.389 296L175.028 295L174.667 294L174.333 293L173.667 291L172.667 288L172.333 287L172 286L171.417 284L171.194 283L170.806 281L170.389 279L170.083 277L169.917 275L169.778 274L169.389 272L169.222 271L169.083 270L169 268L169 266L169 261L169 259L169 258L169.028 256L169.083 255L169.389 253L169.611 252L169.917 250L170.083 248L170.389 246L170.806 244L171.194 242L171.417 241L171.694 240L172.333 238L173.028 236L173.389 235L173.806 234L174.611 232L175.389 230L176.25 228L176.778 227L177.25 226L177.833 225L178.389 224L179.694 222L180.389 221L181.139 220L182.639 218L183.389 217L184.194 216L185.806 214L186.611 213L187.389 212L189 210L190.611 208L191.389 207L193.083 205L195 203.028L196 202.083L198 200.389L199 199.639L200 198.861L201 198.139L202 197.389L204 196.028L205 195.389L207 194.25L208 193.778L209 193.222L210 192.778L211 192.222L213 191.25L215 190.389L217 189.667L218 189.333L219.944 188.639L220.944 188.167L221.5 187.972L223 187L222.222 186.194L221.694 186.028L220.889 185.639L219.972 185.333L218 184.667L216 184L215 183.694L214 183.389L212 182.861L211 182.639L210 182.361L209 182.139L207 181.639L206 181.361L205 181.139L204 180.861L203 180.639L202 180.361L201 180.139L200 179.861L198 179.389L197 179.194L195 178.806L193 178.389L192 178.194L190 177.806L189 177.611L188 177.389L186 177.056L185 176.944L184 176.778L182 176.389L180 176.083L179 176.028L177 175.917L175 175.611L174 175.389L172 175.083L171 175.028L169 175L167 175L159 175L152 175L150 175L149 175.028L148 175.083L146 175.389L145 175.611L143 175.917L142 175.972L140 176.028L139 176.083L137 176.389L136 176.611L134 176.917L132 177.028L131 177.083L129 177.389L127 177.778L126 177.917L124 178.083L123 178.222L121 178.611L119 178.917L117 179.083L116 179.222L114 179.611L113 179.778L112 179.917L110 180.083L109 180.222L107 180.611L105 180.917L104 180.972L102 181L101 181L99 181L97 181L96 180.972L95 180.917L93 180.583L92 180.306L90 179.583L88 178.5L87.0278 177.75L86.0833 176.917L84.5 175L83.9167 174L83.4167 173L82.6944 171L82.4167 170L82.0833 168.056L82.0278 167.056L82 165L85 165L85.0278 166.5L85.2222 168.056L85.4167 169L86.0278 171L86.9167 172.972L87.5 173.917L89.0833 175.5L91 176.528L93 177.139L94 177.361L95 177.611L97 177.917L98 177.972L100 178L101 178L103 177.917L104 177.778L105 177.611L107 177.222L108 177.083L110 176.917L111 176.778L113 176.389L114 176.222L115 176.083L117 175.917L118 175.778L120 175.389L121 175.222L123 174.944L125 174.611L126 174.389L128 174.083L130 173.972L131 173.917L133 173.611L134 173.389L136 173.083L137 173.028L139 172.917L141 172.611L142 172.389L144 172.083L145 172.028L147 172L148 172L150 172L152 171.972L153 171.917L155 171.611L156 171.389L158 171.083L159 171.028L160 171L162 171.028L163 171.083L165 171.389L166 171.611L168 171.917L169 171.972L171 172L173 172L174 172.028L175 172.083L177 172.389L178 172.611L180 172.917L182 173.083L184 173.389L185 173.611L187 173.944L188 174.056L190 174.389L192 174.806L194 175.194L195 175.389L197 175.861L198 176.139L200 176.639L201 176.861L203 177.361L204 177.639L205 177.861L206 178.139L207 178.361L208 178.639L210 179.139L211 179.361L212 179.639L213 179.861L215 180.389L216 180.694L218 181.333L219 181.667L221 182.333L222 182.667L223.944 183.306L224.944 183.583L225.5 183.75L227 184L226.722 182.5L226.083 180.944L225.583 180L224.333 178L223 176L222.333 175L221 173L220.333 172L219.028 170L218.389 169L217.806 168L216.611 166L215.389 164L214.806 163L213.611 161L212.389 159L211.833 158L211.25 157L210.778 156L209.778 154L209.25 153L208.833 152L208.389 151L208.028 150L207.667 149L207 147L206.333 145L206 144L205.389 142L205.139 141L204.861 140L204.389 138L204.056 136L203.944 135L203.611 133L203.389 132L203.083 130L203.083 128L203.222 127L203.611 125.056L203.75 124.5L204 123L206.056 122.972L207.056 122.917L209 122.611L211 122.194L213 121.806L214 121.611L216 121.139L216.944 120.861L217.944 120.611L220 120L219.75 118.5L219.361 116.944L219.139 116L218.861 115L218.639 114L218.389 113L218.056 111L217.944 110L217.611 108L217.389 107L217.083 105L217.028 104L217 102L216.972 101L216.917 100L216.611 98L216.389 97L216.083 95L216.056 94L216.083 93L216.389 91L216.611 90L216.917 88L216.972 87L217.028 85L217.222 83L217.611 81L217.806 80L218.194 78L218.389 77L218.639 76L218.861 75L219.389 73L219.694 72L220 71L220.333 70L221 68L221.667 66L222.028 65L222.389 64L222.806 63L223.611 61L224.389 59L224.833 58L225.25 57L225.778 56L226.778 54L227.25 53L227.833 52L228.389 51L229.667 49L230.333 48L232.333 45L233.667 43L234.333 42L235.694 40L236.417 39L238.056 37L238.944 36L240.611 34L241.389 33L242.972 31.0555L243.722 30.0555L244.222 29.5L245 28L243.5 27.25L242.944 27.1667L241 26.6111L240 26.3055L238 25.6945L237 25.3889L236 25.1389L235 24.8611L233 24.3889L232 24.1945L230 23.8055L229 23.6111L227 23.1389L226 22.8611L225 22.6389L224 22.3889L223 22.1945L221 21.8055L220 21.6111L219 21.3889L218 21.1945L216 20.8055L215 20.6111L214 20.3889L212 20.0833L210 19.9167L209 19.7778L207 19.3889L205 19.0833L204 19.0278L202 18.9167L200 18.6111L199 18.3889L197 18.0833L196 18.0278L194 18L193 18L191 18L189 17.9722L188 17.9167L186 17.6111L185 17.3889L183 17.0833L181 17L180 17L177 17L175 17L174 17.0278L173 17.0833L171 17.3889L170 17.6111L168 17.9167L167 17.9722L165 18L163 18L162 18L160 18.0278L159 18.0833L157 18.3889L156 18.6111L154 18.9167L152 19.0278L151 19.0833L149 19.3889L148 19.6111L146 19.9445L145 20.0555L143 20.3889L141 20.8055L139 21.1945L138 21.3889L136 21.8611L135 22.1389L134 22.3611L132 22.8611L131 23.1389L130 23.3611L129 23.6389L128 23.8611L126 24.3889L125 24.6945L123 25.3333L122 25.6667L119 26.6667L116 27.6667L114 28.3333L112 29.0278L111 29.3889L109 30.25L108 30.75L106 31.6111L104 32.3889L103 32.8333L102 33.25L100 34.2222L99 34.7778L98 35.2222L96 36.25L95 36.8333L94 37.3889L92 38.6111L90 39.8055L89 40.3889L87 41.6667L85 43L83 44.3333L82 45L80 46.3889L79 47.1389L77 48.6389L76 49.3611L75 50.1389L73 51.6389L72 52.3889L70 54.0833L69 55.0278L67 57L66 58L63 61L61 63L60 64L58.0278 66L57.0833 67L55.3889 69L54.6111 70L53 72L51.3889 74L49.8611 76L49.1389 77L48.3889 78L47.6944 79L47 80L45.6667 82L45.0278 83L44.3889 84L43.8056 85L42.6111 87L41.3889 89L40.8333 90L40.25 91L39.2222 93L38.7778 94L38.2222 95L37.7778 96L36.7778 98L36.25 99L35.8333 100L35.3889 101L34.6111 103L33.8056 105L33.3889 106L32.6667 108L32.3333 109L31.6667 111L31 113L30.6944 114L30.3889 115L29.8611 117L29.6389 118L29.3611 119L29.1389 120L28.8611 121L28.3889 123L28.1944 124L27.8056 126L27.6111 127L27.2222 129L27.0278 131L26.9722 133L26.9167 134L26.6111 136L26.3889 137L26.0833 139L26.0278 140L26 142L26 143L26 145L26 156L26 158L26 159L25.9722 161L25.9167 162L25.5278 164L24.8056 166L24.3889 167L23.6667 169L23 171L22.3333 173L22 174L21.6944 175L21.1389 177L20.8611 178L20.6389 179L20.3611 180L20.1389 181L19.6389 183L19.3611 184L19.1389 185L18.8611 186L18.3889 188L18.1944 189L17.8056 191L17.3889 193L17.0556 195L16.9444 196L16.6111 198L16.3889 199L16.0833 201L16.0278 202L16 203L16 205L16 212L16 220L16 222L16.0278 224L16.0833 225L16.3889 227L16.6111 228L16.7778 229L16.9444 230L17.0556 231L17.3889 233L17.8611 235L18.1389 236L18.3611 237L18.6389 238L19.1389 240L19.3889 241L19.6944 242L20 243L20.3333 244L21 246L21.6667 248L22.0278 249L22.3889 250L22.8056 251L23.6111 253L24.3889 255L24.8333 256L25.2778 257L25.8333 258L26.3889 259L27.6111 261L28.8056 263L29.3889 264L30.0278 265L31.3333 267L32.6944 269L33.4167 270L35.0556 272L35.9444 273L36.7778 274L37.6111 275L38.3889 276L40.0833 278L42 280L43 280.972L44 281.917L46 283.611L47 284.389L49 286L51 287.611L53 289.139L54 289.861L55 290.639L56 291.361L57 292.139L59 293.556L60 294.167L62 295.389L64 296.667L66 297.972L67 298.611L69 299.75L70 300.222L71 300.778L72 301.222L73 301.778L74 302.222L76 303.222L77 303.75L79 304.611L81 305.389L83 306.194L84 306.611L86 307.333L87 307.667L90 308.667L93 309.667L94 310L95 310.306L96 310.611L98 311.139L99 311.361L100 311.639L101 311.861L102 312.139L104 312.611L105 312.806L107 313.194L109 313.611L111 313.944L112 314.056L114 314.389L116 314.778L118 315L119 315.083L121 315.389L122 315.611L124 315.917L125 315.972L126 316L128 316L130 316.028L131 316.083L133 316.389L134 316.611L136 316.917L137 316.972L138 317L140 317L143 317L145 317L147 316.917L148 316.778L150 316.389L152 316.083L153 316.028L155 316L156 316L159 316L160 316L162 315.972L163 315.917L165 315.611L166 315.389L168 315.083L169 315.028L171 315L172 315L175 315L176 315L178 314.972L179 314.917L181 314.611L182.944 314.222L184.5 314.028L186 314M281 44L281.083 45.5L281.472 47.0555L281.833 48L282.611 50L283.389 52L283.806 53L284.611 55L285.389 57L286.25 59L286.75 60L287.611 62L288.389 64L289.194 66L289.611 67L290.389 69L290.806 70L291.611 72L292.389 74L292.806 75L293.583 77L294.083 78.9445L294.167 80.5L294 82L292.194 79.9445L291.444 78.9445L290.417 77L289.611 75L288.75 73L288.25 72L287.389 70L286.611 68L285.806 66L285.389 65L284.611 63L284.194 62L283.389 60L282.611 58L281.806 56L281.389 55L280.639 53.0555L280.167 52.0555L279.972 51.5L279 50L276.944 50.5833L275.944 50.7778L275 50.9167L273 51L271 51.0278L270 51.0833L268 51.3889L267 51.6111L266 51.7778L265 51.9445L264 52.0555L262 52.3889L261 52.6389L260 52.8611L258 53.3889L257 53.6945L255 54.3333L253 55.0278L252 55.3889L251 55.8333L250 56.25L249 56.7778L247 57.7778L246 58.2222L245 58.7778L244 59.2222L243 59.7778L242 60.2222L241 60.7778L240 61.25L239 61.8333L238 62.3889L236 63.6945L235 64.4167L233 66.0833L231 68L229.028 70L228.083 71L226.389 73L225.639 74L224.167 76L223.444 77L222.278 79L221.389 81L220.694 83L220.417 84L220.083 86L220 88L220 89L220 90L220 93L220 98L220 100L220.028 101L220.083 102L220.389 104L220.778 106L220.917 107L221.083 109L221.222 110L221.611 112L221.806 113L222.194 115L222.389 115.944L222.75 117.5L223 119L224.5 118.556L225.056 118.333L227 117.611L228 117.194L230 116.389L231 116L233 115.111L235 114L236 113.389L238 112.25L239 111.75L241 110.611L242 109.972L244 108.667L245 108L247 106.611L249 105.167L250 104.472L250.944 103.944L252.5 103.278L254 103L253.222 104.5L252.694 105.056L251.889 106.028L250 107.778L249 108.583L247 110L245 111.333L243 112.667L241 113.972L240 114.611L238 115.75L237 116.222L235 117.222L234 117.778L233 118.222L232 118.778L231 119.222L230 119.75L228 120.611L227 120.972L226 121.333L224 122L222 122.667L221 123L219 123.611L218 123.861L216 124.361L215 124.639L214 124.861L213 125.139L211 125.611L209.056 125.917L207 126L207.778 127L208.306 127.25L209.111 127.861L210.028 128.389L211 129.028L213 130.417L215 132.056L216 132.944L217 133.778L218 134.611L219 135.389L221 137.083L223 139L224 140L225.972 142L226.917 143L228.583 145L230 147L231.333 149L231.972 150L233.194 151.972L233.833 152.889L234.472 153.694L236.056 155L236.944 155.611L238.528 157.111L239.75 159L240.222 160L240.778 161L241.25 162L242.472 164L244.083 165.972L245.028 166.917L247 168.583L248 169.306L250 170.611L252 171.75L253 172.25L254 172.833L255 173.389L255.972 174.028L257.778 175.417L259.278 177.083L259.917 178.028L260.917 180L261.556 182L261.694 183L261.694 184L261.389 186L260.972 188L260.694 188.944L260.278 189.806L259.722 190.444L258.944 190.861L257 191L257.722 192.139L258.25 192.333L260 193L259.917 194.5L259.778 195.056L259.611 196.056L259.222 198L259.083 199L258.917 201L258.778 202L258.389 204L258.083 206L258.028 207L258 208L258 210L258 216L258 221L258 223L258.028 224L258.083 225L258.389 227L258.611 227.944L258.778 228.944L258.917 229.5L259 231L260.083 230.333L260.472 230.028L262.083 229.306L263.028 229.111L264 229.028L266 229.028L267 229.083L269 229.417L270 229.694L272 230.389L273 230.833L274 231.25L275 231.75L277 232.5L279 232.583L280 232.278L281.972 231.111L282.917 230.361L284.611 228.778L286.222 226.972L288.028 225L290 223L291.917 221L292.778 220L293.583 219L295 217L295.667 216L296.972 214L297.611 213L298.75 211L299.222 210L299.778 209L300.222 208L300.778 207L301.222 206L302.25 204.028L303.417 202.333L304.583 201.361L306 201L305.361 199.917L304.833 198.722L304.722 197.917L304.806 196.972L305.056 196L305.417 195L306.417 193L307.694 191.028L308.417 190.083L310.083 188.5L311.028 187.917L313 187.028L315 186.417L316 186.222L317 186.083L319 186.083L321 186.389L322 186.611L324 186.917L326 186.972L327 186.917L329 186.583L330 186.306L332 185.667L333 185.333L335 184.583L336 184.111L337 183.583L339 182.417L339.944 181.917L341.5 181.278L343 181L342.722 182.5L342.139 184.056L341.75 185L341.25 185.944L340.833 186.944L340.5 187.5L340 189L341.222 188.222L341.583 187.694L342.722 185.972L343.528 184L343.917 182.056L343.972 181.056L344 179L345.5 178.472L346.056 178.111L347.056 177.583L348 177L349 176.417L351 175.417L352 175.028L354 174.333L355 174L357 173.417L358.944 173.083L359.944 173.028L362 173L362.083 174.5L362.472 176.056L363.278 178L363.861 179L364.472 179.972L366.083 181.75L367.028 182.528L369 183.722L370 184.139L371 184.528L372 184.75L373 184.917L375 185L375.944 185L376.944 185L379 185L376.944 187.056L375.944 188.056L374.028 190L373.111 190.944L372.306 191.944L371.778 192.5L371 194L372.5 193.222L373.056 192.694L374.056 191.889L376 190L377.917 188L379.5 186L380.056 185.056L380.722 183.5L381 182L378.944 179.944L377.028 178L376.083 177L374.389 175L373.639 174L372.861 173L372.139 172L370.639 170L369.861 169L369.167 168L368.444 167L367.833 166L366.611 164L365.389 162L364.833 161L364.25 160L363.778 159L363.25 158L362.389 156L361.611 154L360.806 152L360.389 151L359.611 149L358.806 147L358.028 145L357.389 143L357.139 142L356.861 141.056L356.611 140.056L356 138L357 137L359 137L359.611 139.056L360.139 141L360.389 142L360.694 143L361 144L361.667 146L362.389 148L362.806 149L363.611 151L364.389 153L365.25 155L365.778 156L366.778 158L367.222 159L367.778 160L368.25 161L369.389 163L370.611 164.944L370.944 165.5L372 167L373.5 166.639L374.056 166.278L375.056 165.694L376 164.972L378 163.389L379 162.611L380.917 160.917L381.778 159.972L382.611 159L384.222 157L385.083 156L386.917 154L387.778 153L389.361 151L390.139 150L390.833 149L391.556 148L392.167 147L393.389 145L394.583 143L395.5 141L395.75 140L395.972 138L396 137C396.014 135.999 395.986 134.998 395.917 134L395.778 133L395.389 131L395.222 130L395.083 129L394.917 127L394.778 126L394.611 125L394.361 124L393.861 122L393.611 121L393 119L392.667 118L392 116L391.333 114L390.611 112L390.194 111L389.389 109L388.611 107L388.167 106L387.75 105L386.778 103L386.222 102L385.75 101L385.167 100L384.611 99L383.389 97L382.167 95L381.528 94L379.917 92L378 90L377 89L376 88L374 86.0833L373 85.25L372 84.4722L371 83.8611L370 83.2778L368 82.3889L366.056 81.6667L365.5 81.4445L364 81L362.5 82.2222L361.944 82.5833L360 83.8055L359 84.3889L357 85.6111L355 86.8055L354 87.3889L352 88.6667L351 89.3333L349 90.6111L348 91.1945L347 91.8055L346 92.3889L344.028 93.6111L343.111 94.1945L341.722 95.4167L341.111 96.5833L341 98L339.5 97.7222L337.944 97.0555L337 96.5278L335 95.1389L334 94.3889L332 93.0278L330 91.8333L329 91.25L328 90.7778L326 89.7778L325 89.25L323 88.3889L321 87.6945L320 87.3889L319 87.1389L317 86.6389L316 86.3889L314 86.0555L313 85.9445L311 85.5278L309.056 84.8055L308.5 84.5L307 84L308.5 82.8611L310.056 82.3055L311 82.1945L313 82.3889L315 82.8611L316 83.1389L317 83.3611L318 83.6389L319 83.8611L321 84.4445L322.944 85.1945L323.5 85.5L325 86L324.667 84.5L323.889 82.9445L322.583 81L321 79L319.389 77L318.611 76L316.917 74L315.972 73L314.083 71L312.389 69L311.611 68L309.917 66L308 64.0278L307 63.0833L305 61.3889L303 59.7778L302 58.9167L300 57.0833L298 55.3889L297 54.6389L295 53.1389L294 52.3611L293 51.6389L291 50.1389L290 49.3889L289 48.6945L288 48L286 46.6667L285 46.0278L284.056 45.4167L283.056 44.8889L282.5 44.5278L281 44z"/>
<path style="fill:#ffffff; stroke:none;" d="M207 127L207.25 128.5L207.389 129.056L207.778 131L207.917 132L208.083 134L208.389 136L208.611 137L209 139L209.389 141L209.861 143L210.139 144L210.694 146L211.389 148L211.806 149L212.611 151L213.389 153L213.833 154L214.278 155L214.833 156L215.389 157L216.611 159L217.806 161L218.389 162L219.028 163L219.667 164L221 166L221.667 167L223 169L226.333 174L228.333 177L229 178L230.389 180L231.139 181L231.833 182L232.556 183L233.167 184L233.806 185L235.028 187L236.333 189L236.972 190L237.611 191L238.75 193L239.222 194L239.778 195L240.222 196L240.778 197L241.222 198L241.75 199L242.611 201L242.972 202L243.333 203L244 205L244.667 207L245 208L245.583 210L246 212L246.194 213L246.389 214L246.861 216L247.139 217L247.361 218L247.639 219L248.167 221L248.444 222L249.25 224L249.778 225L250.778 227L251.25 228L251.861 229L252.472 230L254.083 231.972L255.028 232.917L256.944 234.5L258.5 235.472L260 236L259.75 234.5L259.611 233.944L259.222 232L259.083 231L258.917 229L258.778 228L258.389 226L258.083 224L258.028 223L258 222L258 220L258 214L258 211L258 210L258.028 208L258.083 207L258.389 205L258.778 203L258.917 202L259.083 200L259.222 199L259.611 197L259.917 195.056L260 193L258.583 192.222L258.194 191.694L257.417 190.889L256.833 190L255.528 188.25L254.75 187.5L252.972 186.417L251 185.583L249 184.583L248 183.972L246 182.583L244 180.917L242.083 179L241.222 178L240.417 177L239.028 175L237.833 173L237.278 172L236.861 171L236.444 170L236.167 169L235.861 168L235.389 166L235.056 164L234.944 163L234.611 161L234.306 159L234.389 157L234.528 156L234.444 154L234.111 153L233.167 151L232.611 150L231.972 149L230.667 147L230 146L228.583 144L227.778 143L226.917 142L225.972 141L225 140L224 139L222 137.083L220 135.389L219 134.611L218 133.778L217 132.944L216 132.056L214 130.417L212 129.028L211 128.417L210.056 127.917L208.5 127.278L207 127z"/>
<path style="fill:#fda13f; stroke:none;" d="M207 129L207 133L207.722 132.222L207.889 131L207.722 130.278L207.722 129.778L207 129M208 136L208 139L208.694 138.25L208.694 137.806L208.694 136.75L208 136M209.333 141.667L209.333 142.333L209.667 142.333L209.667 141.667L209.333 141.667M210 145L211 146L210 145M211 148L212 149L211 148M212 150L213 151L212 150z"/>
<path style="fill:#150e08; stroke:none;" d="M235 155L235 160L235 162L235.028 163L235.083 164L235.417 166L236 168L236.333 169L237.028 171L237.389 172L238.278 174L238.833 175L240.028 177L241.417 178.972L242.222 179.917L243.083 180.778L245 182.306L246 182.972L248 184.167L249 184.722L250 185.167L251 185.639L252 186.083L253.972 187.306L254.917 188.111L256.528 189.944L258 192L260 192L261 191L261.028 189.5L261.222 187.944L261.611 186L261.778 185L261.889 184L261.889 183L261.583 181L261.278 180L260.917 179L259.917 177.083L259.278 176.222L258.583 175.417L257.778 174.694L255.972 173.389L254 172.25L253 171.75L252 171.167L251 170.611L249 169.306L248 168.583L246 166.917L244.083 165L243.25 164L242.472 163L241.25 161L240.778 160L240.222 159L239.806 158.056L239.222 157.056L239 156.5L238 155L235 155z"/>
<path style="fill:#fda13f; stroke:none;" d="M234 156L234 161L234.722 160.222L234.75 159.694L234.917 158.917L234.75 157.306L234.722 156.778L234 156M216 158L217 159L216 158M217 160L218 161L217 160M219 163L220 164L219 163M220 165L221 166L220 165M221 166L222 167L221 166M235 166L236 167L235 166M222 168L223 169L222 168M223 169L224 170L223 169M236.333 169.667L236.333 170L236.667 170.333L236.667 170L236.333 169.667M224 171L225 172L224 171M225 172L226 173L225 172M237 172L238 173L237 172z"/>
<path style="fill:#ffffff; stroke:none;" d="M344 179L343.917 181.056L343.528 183L342.722 185L341.528 186.917L340.75 187.778L339.917 188.611L338 190.222L336 192L335 192.917L333 194.528L331 195.75L330 196.222L329 196.75L328 197.167L327 197.611L325 198.306L324 198.583L322 198.917L320 199L319 199L317 199L313 199L311 199L310 199.028L309 199.111L307 199.611L305.056 200.389L304.5 200.667L303 201L302.5 202.5L302.167 203.056L301.75 204.056L301.222 205L300.222 207L299.222 209L298.75 210L297.611 212L296.972 213L295.667 215L294.306 217L293.583 218L291.917 220L290 222L288.028 224L287.083 225L285.389 226.972L284.611 227.917L282.917 229.611L281.056 231.111L280.056 231.778L279.5 232.25L278 233L277.889 234.5L277.278 236.028L276.667 236.917L275.028 238.5L273.5 239.472L272 240L272.778 240.722L273.306 240.75L274.111 240.944L276 241L277 241L279 240.972L280 240.917L282 240.583L283 240.306L285 239.611L287 238.75L288 238.222L289 237.75L291 236.611L292 235.972L294 234.583L296 232.917L297 231.972L299 230.083L301 228.389L303 226.806L305 225.194L306 224.417L308 223.028L309 222.389L311 221.25L312 220.778L313 220.222L314 219.778L315 219.222L316 218.778L317 218.222L318 217.778L319 217.222L320 216.778L321 216.25L323 215.389L324 215.028L325 214.667L326 214.333L328 213.611L329 213.194L331 212.389L333 211.667L334 211.333L336 210.667L341 209L343 208.333L344 207.972L345 207.611L346 207.194L348 206.389L350 205.611L351 205.194L353 204.389L355 203.611L356 203.167L357 202.75L358 202.222L360 201.222L361 200.75L362 200.167L363 199.611L364 198.972L366 197.611L367 196.861L369 195.361L370 194.611L372 192.917L373 191.972L375 190L376.889 188.056L377.694 187.056L378.222 186.5L379 185L376.944 185L375 184.972L374 184.917L372 184.528L371 184.139L370 183.722L368 182.528L366.083 180.917L364.472 179L363.278 177L362.861 176.056L362.278 174.5L362 173L359.944 173L358 173.083L357 173.222L356 173.417L354 174L353 174.333L352 174.667L350 175.417L348 176.417L346.056 177.611L345.5 177.944L344 179z"/>
<path style="fill:#fda13f; stroke:none;" d="M238 174L239 175L238 174M227 175L228 176L227 175M240 177L241 178L240 177M229 178L230 179L229 178M231 181L232 182L231 181z"/>
<path style="fill:#150e08; stroke:none;" d="M304 200L305.5 199.889L307.056 199.389L309 198.611L311 198.139L312 198.111L314 198.389L316 198.778L317 198.917L319 199L320 198.972L321 198.917L323 198.611L324 198.361L326 197.833L327 197.556L329 196.75L330 196.222L331 195.75L333 194.556L334 193.833L336 192.361L337 191.611L338.917 189.917L340.528 188L341.139 187L341.722 186L342.528 184.056L342.917 182.5L343 181L341.5 181.083L339.944 181.5L338 182.417L336 183.583L335 184.111L334 184.583L332 185.333L331 185.667L329 186.306L328 186.583L326 186.889L325 186.889L323 186.611L322 186.389L320 186.083L319 186.028L318 186L316 186.083L314 186.417L313 186.694L311.028 187.417L309.222 188.5L307.694 190.083L307.028 191.028L306.417 192L305.417 194L305.028 195L304.417 196.944L304.222 197.944L304.083 198.5L304 200z"/>
<path style="fill:#fda13f; stroke:none;" d="M232 182L233 183L232 182M245 182L246 183L245 182M233 184L234 185L233 184M248 184L249 185L248 184M250 185L251 186L250 185M253 186L254 187L253 186z"/>
<path style="fill:#ffffff; stroke:none;" d="M276 384L277.5 383.472L278.056 383.083L279.056 382.5L280 381.778L282 380.194L284 378.611L286 376.917L288 375L289 374L291 372L292 371L293.917 369L295.583 367L296.306 366L297.667 364L298.972 362L299.611 361L300.75 359L301.222 358L302.222 356L303.222 354L303.75 353L304.167 352L304.611 351L305.389 349L306.167 347L306.556 346L307.139 344L307.389 343L308 341L308.583 339L309 337L309.389 335L309.611 334L309.806 333L310.194 331L310.389 330L310.611 329L310.917 327L310.972 326L311 325L311 324L311 322L311.028 320L311.083 319L311.389 317L311.611 316L311.917 314L311.944 313L311.917 312L311.611 310L311.389 309L311.083 307L311.028 306L311 305L311 303L310.972 301L310.917 300L310.611 298L310.222 296L310.083 295L309.917 293L309.611 291L309.194 289L308.806 287L308.611 286L308.361 285L308.139 284L307.611 282L307.306 281L306.694 279L306.389 278L306.139 277L305.611 275L305 273L304.333 271L303.333 268L302.667 266L302.333 265L301.972 264L301.611 263L301.194 262L300.389 260L299.611 258L298.75 256L298.25 255L297.389 253L296.611 251L295.75 249L295.222 248L294.222 246L293.778 245L293.25 244.056L292.833 243.056L292.5 242.5L292 241L290.5 241.5L289.944 241.833L288.944 242.25L288 242.778L286 243.75L284 244.528L282 244.944L281 245.056L280 245.194L278 245.389L277 245.389L276 245.306L274 245.056L273 244.944L271 244.611L270 244.361L268 243.861L267 243.611L265 242.972L264 242.611L262 241.75L261 241.222L260 240.778L259 240.222L258 239.75L256 238.611L254 237.306L253 236.583L251.083 234.917L249.417 233L248.694 232L247.417 230L246.417 228L245.611 226L244.806 224L244.389 223L243.667 221L243.333 220L242.611 218L242.194 217L241.389 215L240.611 213L239.806 211L239.389 210L239.028 209L238.667 208L238.333 207L237.611 205L237.194 204L236.389 202L235.611 200L234.75 198L234.25 197L233.389 195L232.583 193L232.083 192.028L231.5 191.083L229.917 189.5L228 188.417L227 188.028L225 187.444L224 187.306L222 187.5L221 187.833L219 188.611L217 189.333L215 190.028L213 190.833L212 191.25L210 192.222L209 192.778L208 193.222L207 193.778L206 194.25L204 195.389L203 196.028L201 197.389L200 198.139L199 198.861L197 200.389L196 201.222L195 202.083L193.083 204L191.389 206L190.611 207L189 209L188.194 210L186.611 212L185.806 213L184.194 215L183.389 216L182.639 217L181.139 219L180.389 220L179.694 221L178.389 223L177.25 225L176.778 226L176.25 227L175.833 228L175.389 229L174.611 231L173.806 233L173.389 234L172.667 236L172.333 237L172 238L171.417 240L171.194 241L170.806 243L170.389 245L170.083 247L169.917 249L169.778 250L169.389 252L169.083 254L169.028 255L169 257L169 259L169 262L169 267L169 269L169.028 270L169.083 271L169.389 273L169.778 275L169.917 276L170.083 278L170.389 280L170.806 282L171.194 284L171.417 285L172 287L172.333 288L172.667 289L173.333 291L174.333 294L174.667 295L175.389 297L175.833 298L176.25 299L176.778 300L177.25 301L177.833 302L178.389 303L179.611 305L180.806 307L181.389 308L182.028 309L183.417 310.972L185.083 312.667L186.028 313.278L188 313.889L189 313.972L191 314L192 314L195 314L196 314L198 314.083L200 314.389L202 314.778L203 314.917L205 315.083L207 315.389L209 315.806L211 316.194L212 316.389L214 316.861L215 317.139L216 317.361L217 317.639L218 317.861L220 318.389L221 318.694L222 319L224 319.667L225 320.028L226 320.389L228 321.25L229 321.75L231 322.611L233 323.389L235 324.278L236 324.833L237 325.389L239 326.611L241 327.806L242 328.389L244 329.694L245 330.417L246 331.194L248 332.806L249 333.611L250 334.389L252 336.083L253 337.028L254 338L255.917 340L257.611 342L258.389 343L259.194 344L260.806 346L261.583 347L263 349L263.667 350L264.972 352L265.611 353L266.75 355L267.222 356L267.778 357L268.222 358L268.778 359L269.222 360L269.778 361L270.222 362L270.75 363L271.611 365L271.972 366L272.333 367L273 369L273.667 371L274 372L274.611 374L274.861 375L275.361 377L275.611 378L275.917 380L275.972 380.944L276 381.944L276 384z"/>
<path style="fill:#fda13f; stroke:none;" d="M225.667 187.333L226 187.667L226.333 187.667L226 187.333L225.667 187.333M235 187L236 188L235 187M228.667 188.333L229 188.667L229.333 188.667L229 188.333L228.667 188.333M230 189L231 190L230 189M236 189L237 190L236 189M256 189L257 190L256 189M231 190L232 191L231 190M237 190L238 191L237 190M232 192L233 193L232 192M238 192L239 193L238 192M335 192L336 193L335 192M334 193L335 194L334 193M239 194L240 195L239 194M333 194L334 195L333 194M233 195L234 196L233 195M331 195L332 196L331 195M368 195L369 196L368 195M240 196L241 197L240 196M329 196L330 197L329 196M367 196L368 197L367 196M234 197L235 198L234 197M327 197L328 198L327 197M241 198L242 199L241 198M308 198L308.778 198.722L309.306 198.75L310.111 198.944L311.028 198.972L311.944 199L312.944 199L315 199L314.222 198.278L313.694 198.25L312.889 198.056L311.972 198.028L311.056 198L310.056 198L308 198M323.667 198.333L324 198.667L324.333 198.667L324 198.333L323.667 198.333M364 198L365 199L364 198M235 199L236 200L235 199M242 200L243 201L242 200M361 200L362 201L361 200M359 201L360 202L359 201M236 202L237 203L236 202M357 202L358 203L357 202M243 203L244 204L243 203M355 203L356 204L355 203M237 204L238 205L237 204M352 204L353 205L352 204M350 205L351 206L350 205M244 206L245 207L244 206M347 206L348 207L347 206M238 207L239 208L238 207M345 207L346 208L345 207M342 208L343 209L342 208M239.333 209.667L239.333 210L239.667 210.333L239.667 210L239.333 209.667M245.333 209.667L245.333 210L245.667 210.333L245.667 210L245.333 209.667M339 209L340 210L339 209M336 210L337 211L336 210M333.667 211.333L333.667 211.667L334.333 211.667L334 211.333L333.667 211.333M240 212L241 213L240 212M330.667 212.333L331 212.667L331.333 212.667L331 212.333L330.667 212.333M328 213L329 214L328 213M246.333 214.667L246.333 215L246.667 215.333L246.667 215L246.333 214.667M325 214L326 215L325 214M241 215L242 216L241 215M322.667 215.333L323 215.667L323.333 215.667L323 215.333L322.667 215.333M320 216L321 217L320 216M242 217L243 218L242 217M318 217L319 218L318 217M247.333 218.667L247.333 219.333L247.667 219.333L247.667 219L247.333 218.667M316 218L317 219L316 218M314 219L315 220L314 219M243 220L244 221L243 220M312 220L313 221L312 220M310 221L311 222L310 221M248 222L249 223L248 222M308 222L309 223L308 222M244 223L245 224L244 223M307 223L308 224L307 223M249 224L250 225L249 224M305 224L306 225L305 224M245 225L246 226L245 225M304 225L305 226L304 225M250 226L251 227L250 226M303 226L304 227L303 226M246 228L247 229L246 228M251 228L252 229L251 228M300 228L301 229L300 228M299 229L300 230L299 229M247 230L248 231L247 230M298 230L299 231L298 230M248 231L249 232L248 231M253 231L254 232L253 231M297 231L298 232L297 231M254 232L255 233L254 232M249 233L250 234L249 233M255 233L256 234L255 233M259 233L260 234L259 233M250 234L251 235L250 234M251 235L252 236L251 235M258 235L259 236L258 235M260.333 235.667L260.333 236.333L260.667 236.333L260.667 235.667L260.333 235.667M292 235L293 236L292 235M252 236L253 237L252 236M277 236L278 237L277 236M289 237L290 238L289 237M255 238L256 239L255 238M287 238L288 239L287 238M273 239L274 240L273 239M285 239L286 240L285 239M271 240L272 241L271 240M282.667 240.333L283 240.667L283.333 240.667L283 240.333L282.667 240.333M261 241L262 242L261 241M290 241L291 242L290 241M263.667 242.333L264 242.667L264.333 242.667L264 242.333L263.667 242.333M292 242L293 243L292 242M266.667 243.333L267 243.667L267.333 243.667L267 243.333L266.667 243.333M270.667 244.333L271 244.667L271.333 244.667L271 244.333L270.667 244.333M284 244L285 245L284 244M293 244L294 245L293 244M276 245L276.722 245.722L277.25 245.75L279 246L278.278 245.278L277.75 245.25L276 245M294 246L295 247L294 246M295 248L296 249L295 248M296 250L297 251L296 250M297.333 252.667L297.333 253.333L297.667 253.333L297.667 253L297.333 252.667M298 255L299 256L298 255M299 257L300 258L299 257M300 260L301 261L300 260M301 262L302 263L301 262M302 265L303 266L302 265M303 268L304 269L303 268M304 271L305 272L304 271M305 274L306 275L305 274M306.333 277.667L306.333 278.333L306.667 278.333L306.667 277.667L306.333 277.667M307 281L308 282L307 281M308.333 284.667L308.333 285.333L308.667 285.333L308.667 284.667L308.333 284.667M309.333 289.667L309.333 290.333L309.667 290.333L309.667 289.667L309.333 289.667M310 294L310 298L310.722 297.222L310.889 296L310.722 295.278L310.722 294.778L310 294M311 303L311 310L311.722 309.222L311.75 308.694L311.944 307.889L311.972 306.972L311.944 305.111L311.75 304.306L311.722 303.778L311 303M193 314L193.778 314.722L194.306 314.75L195.111 314.944L196.028 314.972L197.944 315L198.944 315L201 315L200.222 314.278L199.694 314.25L198.889 314.056L197.972 314.028L196.056 314L195.056 314L193 314M206.667 315.333L207 315.667L207.333 315.667L207.333 315.333L206.667 315.333M211.667 316.333L211.667 316.667L212.333 316.667L212.333 316.333L211.667 316.333M311 316L311 324L311.722 323.222L311.75 322.694L311.944 321.889L311.972 320.972L312 320L311.944 318.111L311.75 317.306L311.722 316.778L311 316M216 317L217 318L216 317M219.667 318.333L219.667 318.667L220.333 318.667L220 318.333L219.667 318.333M223 319L224 320L223 319M225.667 320.333L225.667 320.667L226.333 320.667L226 320.333L225.667 320.333M228 321L229 322L228 321M230 322L231 323L230 322M233 323L234 324L233 323M235 324L236 325L235 324M237 325L238 326L237 325M238 326L239 327L238 326M240 327L241 328L240 327M242 328L243 329L242 328M243 329L244 330L243 329M310.333 329.667L310.333 330L310.667 330.333L310.667 329.667L310.333 329.667M245 330L246 331L245 330M246 331L247 332L246 331M247 332L248 333L247 332M250 334L251 335L250 334M309 334L309 337L309.694 336.25L309.694 335.194L309.694 334.75L309 334M251 335L252 336L251 335M252 336L253 337L252 336M253 337L254 338L253 337M254 338L255 339L254 338M255 339L256 340L255 339M308.333 339.667L308.333 340.333L308.667 340.333L308.667 339.667L308.333 339.667M256 340L257 341L256 340M257 341L258 342L257 341M307.333 342.667L307.333 343.333L307.667 343.333L307.667 342.667L307.333 342.667M260 345L261 346L260 345M261 346L262 347L261 346M306 346L307 347L306 346M262 348L263 349L262 348M305.333 348.667L305.333 349.333L305.667 349.333L305.667 348.667L305.333 348.667M263 349L264 350L263 349M264 351L265 352L264 351M304 351L305 352L304 351M265 352L266 353L265 352M303 353L304 354L303 353M266 354L267 355L266 354M302 355L303 356L302 355M267 356L268 357L267 356M301 357L302 358L301 357M268 358L269 359L268 358M300 359L301 360L300 359M269 360L270 361L269 360M299 361L300 362L299 361M270 362L271 363L270 362M298 362L299 363L298 362M271 364L272 365L271 364M297 364L298 365L297 364M296 365L297 366L296 365M272 367L273 368L272 367M293 369L294 370L293 369M273 370L274 371L273 370M292 370L293 371L292 370M291 371L292 372L291 371M290 372L291 373L290 372M274 373L275 374L274 373M289 373L290 374L289 373M288 374L289 375L288 374M287 375L288 376L287 375M286 376L287 377L286 376M275.333 377.667L275.333 378.333L275.667 378.333L275.667 377.667L275.333 377.667M285 377L286 378L285 377M282 379L283 380L282 379M281 380L282 381L281 380M280 381L281 382L280 381M277 383L278 384L277 383z"/>
</svg>
